<?xml version="1.0" standalone="no"?>
<!DOCTYPE svg PUBLIC "-//W3C//DTD SVG 20010904//EN"
 "http://www.w3.org/TR/2001/REC-SVG-20010904/DTD/svg10.dtd">
<svg version="1.0" xmlns="http://www.w3.org/2000/svg"
 width="227.000000pt" height="227.000000pt" viewBox="0 0 227.000000 227.000000"
 preserveAspectRatio="xMidYMid meet">
<metadata>
Created by potrace 1.14, written by Peter Selinger 2001-2017
</metadata>
<g transform="translate(0.000000,227.000000) scale(0.100000,-0.100000)"
fill="#000000" stroke="none">
<path d="M1020 2215 l0 -54 -152 -3 -153 -3 -3 -87 -3 -87 153 -3 153 -3 3
-32 3 -33 -50 0 c-73 0 -100 -15 -107 -62 l-7 -38 -48 0 -49 0 0 -100 0 -100
50 0 50 0 0 -105 0 -105 -230 0 -230 0 0 75 0 75 -130 0 -130 0 0 -75 0 -75
-70 0 -70 0 0 -410 0 -410 70 0 70 0 0 -75 0 -75 130 0 130 0 0 75 0 75 310 0
c190 0 310 -4 310 -10 0 -12 -46 -89 -102 -172 -25 -36 -51 -83 -58 -103 -29
-86 17 -196 104 -249 86 -54 215 -46 291 17 74 60 107 186 69 260 -9 18 -43
68 -74 112 -32 44 -65 95 -74 112 l-17 33 346 0 345 0 0 -75 0 -75 130 0 130
0 0 75 0 75 75 0 75 0 0 410 0 410 -75 0 -75 0 0 75 0 75 -130 0 -130 0 0 -75
0 -75 -245 0 -245 0 0 105 0 105 50 0 50 0 0 100 0 100 -49 0 c-48 0 -49 1
-55 35 -9 46 -39 65 -103 65 l-53 0 0 35 0 35 150 0 150 0 0 90 0 90 -150 0
-150 0 0 55 0 55 -90 0 -90 0 0 -55z m120 -30 c0 -21 -5 -25 -30 -25 -25 0
-30 4 -30 25 0 21 5 25 30 25 25 0 30 -4 30 -25z m300 -115 l0 -30 -335 0
-335 0 0 23 c0 13 3 27 7 30 3 4 154 7 335 7 l328 0 0 -30z m-300 -125 c0 -32
-2 -35 -30 -35 -28 0 -30 3 -30 35 0 32 2 35 30 35 28 0 30 -3 30 -35z m160
-115 c0 -19 -7 -20 -190 -20 -183 0 -190 1 -190 20 0 19 7 20 190 20 183 0
190 -1 190 -20z m100 -120 l0 -40 -290 0 -290 0 0 40 0 40 290 0 290 0 0 -40z
m-100 -320 l0 -220 -190 0 -190 0 0 220 0 220 190 0 190 0 0 -220z m-980 -400
l0 -480 -50 0 -50 0 0 480 0 480 50 0 50 0 0 -480z m1710 0 l0 -480 -50 0 -50
0 0 480 0 480 50 0 50 0 0 -480z m-1890 0 l0 -330 -30 0 -30 0 0 330 0 330 30
0 30 0 0 -330z m722 240 c2 -55 8 -94 16 -102 9 -10 64 -14 205 -16 106 -2
206 -1 223 3 41 7 54 38 54 130 l0 75 245 0 245 0 0 -330 0 -330 -360 0 -359
0 -11 43 c-6 23 -17 62 -24 87 l-13 45 -12 -75 c-7 -41 -14 -81 -16 -87 -3
-10 -78 -13 -330 -13 l-325 0 0 330 0 330 229 0 229 0 4 -90z m1318 -240 l0
-330 -35 0 -35 0 0 330 0 330 35 0 35 0 0 -330z m-1028 -559 c21 -31 54 -78
74 -106 32 -44 35 -55 31 -94 -5 -47 -27 -83 -71 -115 -21 -16 -42 -21 -91
-21 -49 0 -70 5 -91 21 -48 35 -69 72 -69 118 0 36 10 58 66 142 37 54 72 110
79 124 12 23 14 23 24 6 6 -10 28 -44 48 -75z"/>
</g>
</svg>
