<?xml version="1.0" standalone="no"?>
<!DOCTYPE svg PUBLIC "-//W3C//DTD SVG 20010904//EN"
 "http://www.w3.org/TR/2001/REC-SVG-20010904/DTD/svg10.dtd">
<svg version="1.0" xmlns="http://www.w3.org/2000/svg"
 width="232.000000pt" height="232.000000pt" viewBox="0 0 232.000000 232.000000"
 preserveAspectRatio="xMidYMid meet">
<metadata>
Created by potrace 1.14, written by Peter Selinger 2001-2017
</metadata>
<g transform="translate(0.000000,232.000000) scale(0.100000,-0.100000)"
fill="#000000" stroke="none">
<path d="M1150 2283 c0 -9 -16 -64 -36 -122 -41 -120 -142 -323 -242 -486
-188 -306 -226 -373 -290 -506 -64 -131 -97 -230 -118 -349 -7 -45 -8 -170 0
-207 3 -15 8 -44 11 -63 4 -19 17 -61 30 -93 110 -272 377 -446 686 -447 338
-1 623 249 675 590 7 48 7 185 -1 210 -2 8 -7 31 -10 50 -22 131 -93 297 -228
535 -44 77 -91 160 -105 185 -14 25 -36 62 -49 84 -96 152 -225 407 -275 544
-31 87 -48 113 -48 75z"/>
</g>
</svg>
